<svg width="574" height="53" viewBox="0 0 574 53" fill="none" xmlns="http://www.w3.org/2000/svg">
<path d="M0.00671387 31.8813C58.4511 32.2751 173.677 30.7392 232.187 31.1307C232.255 31.1311 232.316 31.1589 232.363 31.2076L239.615 38.7717C239.729 38.8902 239.924 38.8689 240.009 38.7286L262.898 1.12009C262.997 0.957073 263.235 0.960844 263.329 1.12692L280.513 31.4856C280.61 31.6572 280.858 31.6541 280.951 31.4802L284.916 24.0521C285.011 23.8742 285.267 23.8762 285.359 24.0555L299.346 51.2389C299.446 51.4341 299.731 51.4143 299.804 51.207L315.161 7.27173C315.232 7.06973 315.507 7.04402 315.614 7.22945L329.74 31.7561C329.785 31.8336 329.867 31.8813 329.957 31.8813H573.086" stroke="url(#paint0_linear_1_276)" stroke-width="2"/>
<defs>
<linearGradient id="paint0_linear_1_276" x1="495.915" y1="31.2417" x2="82.5473" y2="31.9644" gradientUnits="userSpaceOnUse">
<stop stop-color="#2559FF" stop-opacity="0"/>
<stop offset="0.245211" stop-color="#2559FF"/>
<stop offset="0.507389" stop-color="#2559FF"/>
<stop offset="0.838894" stop-color="#2559FF"/>
<stop offset="1" stop-color="#2559FF" stop-opacity="0"/>
</linearGradient>
</defs>
</svg>
